<?xml version="1.0" encoding="utf-8"?>
<!-- Generator: Adobe Illustrator 22.0.1, SVG Export Plug-In . SVG Version: 6.00 Build 0)  -->
<svg version="1.1" id="Layer_1" xmlns="http://www.w3.org/2000/svg" xmlns:xlink="http://www.w3.org/1999/xlink" x="0px" y="0px"
	 viewBox="0 0 1088 288.6" style="enable-background:new 0 0 1088 288.6;" xml:space="preserve">
<style type="text/css">
	.st0{fill:#0828CC;}
	.st1{fill:#0F0F0F;}
</style>
<g>
	<path class="st0" d="M51.4,238.8C83.9,180.2,124.9,131.2,179,93.6c-61.8,25.6-110.5,68.1-154.9,119.7c-2.3-11.1-5.3-20.5-5.9-30
		c-1.7-23.4-2.2-46.9,5.6-69.7C34.6,81.7,55.5,59.5,86.2,46c33.1-14.6,68.1-21.1,103.7-24.5c18.3-1.7,36.7-2,55.1-2.8
		c4-0.2,8,0.4,14.2,0.7c-1.8,24.9-2.7,49-5.5,72.8c-3.5,29.8-10.5,58.8-23.3,86.2c-19.1,41.1-53.1,60.3-96,67
		c-25.3,3.9-50.2,1.4-75-4C57.1,240.8,54.9,239.9,51.4,238.8z"/>
</g>
<g>
	<path class="st1" d="M299.1,190.4c0.3-0.5,3.6-6.6,9.7-18.3c6.1-11.7,12.6-17.5,19.4-17.5c3.1,0,5.7,2.4,7.6,7.1
		c3.3,9.4,6.7,17.9,10.2,25.4c3.5,7.5,9.1,15.2,16.9,23c7.8,7.8,17,11.8,27.9,11.8c7.5,0,13.3-2.6,17.4-7.7
		c4.1-5.1,6.1-12.2,6.1-21.1c0-8-1.5-14.9-4.6-20.7c-3.1-5.8-7.7-11-13.9-15.7c-6.2-4.7-14.9-10-26-16c-0.7-0.5-2.9-1.7-6.5-3.4
		c-10.6-5.8-18.9-10.7-24.9-14.8c-5.9-4.1-10.9-9.2-15-15.3c-4.1-6.1-6.1-13.5-6.1-22.2c0-10.1,2.4-19.5,7.1-28.1
		c4.7-8.6,11.8-15.6,21.3-20.8c9.5-5.2,21.1-7.8,34.7-7.8c11.9,0,22.6,1.9,32.3,5.6c9.7,3.8,17.6,7.8,23.7,12.3
		c6.1,4.4,9.2,7.2,9.4,8.2c-0.5,0.5-2.4,3.1-5.6,7.8c-3.2,4.7-7.5,10-12.7,16c-5.2,5.9-10,8.9-14.4,8.9c-1.6,0-2.9-0.4-3.9-1.3
		c-1.7-1.2-3.1-3.1-4.2-5.8c-1-2.6-2.3-6.5-3.7-11.8c-1.9-7.1-3.9-13.1-6-17.8c-2.1-4.7-5.3-8.8-9.5-12.2
		c-4.3-3.4-10.1-5.1-17.4-5.1c-5.9,0-11.1,1.8-15.6,5.5s-6.7,10.1-6.7,19.4c0,7,1.9,13.4,5.6,19.4c3.7,5.9,8.5,11.3,14.3,16
		c5.8,4.7,13.2,10,22.2,16l6.8,4.2c11.3,7,20.4,13,27.1,18.1c6.7,5.1,12.4,11,17,17.9c4.6,6.9,6.9,14.7,6.9,23.4
		c0,9.8-2.7,18.8-8.2,27.2c-5.5,8.4-13.2,15-23,19.9c-9.9,4.9-21.1,7.3-33.6,7.3c-14.5,0-28.7-3.1-42.6-9.4
		c-14-6.3-23.9-12.4-30-18.3C302.3,193.6,299.2,190.6,299.1,190.4z"/>
	<path class="st1" d="M567.5,89.6c10.1,6,18.5,14.8,25.1,26.3c6.6,11.5,9.9,25,9.9,40.6c0,15.9-3.4,28.9-10.2,39.1
		c-6.8,10.2-15.2,17.6-25.2,22.1c-10,4.5-20,6.8-30,6.8c-15,0-26-5.2-33-15.7c0.5,15,1.3,28.4,2.2,40.3c1,11.9,1.6,19.4,2,22.5
		h-41.9c0.3-3,0.9-9.7,1.7-20.3c0.8-10.6,1.6-23.4,2.4-38.5c0.8-15.1,1.2-29.5,1.2-43.3c0-13.8-0.4-27.3-1.2-40.4
		c-0.8-13.2-1.6-24-2.4-32.4c-0.8-8.5-1.4-13.8-1.7-16.1h39.2L505,95.2c8.9-9.8,19.6-14.7,32.2-14.7
		C547.3,80.5,557.4,83.5,567.5,89.6z M558.4,198.1c5.1-12.3,7.6-26.2,7.6-41.7c0-18.8-3.1-34.9-9.4-48.1
		c-6.3-13.3-15.4-19.9-27.2-19.9c-10.8,0-19,5-24.6,14.9c-1,22.7-1.6,43.9-1.6,63.6c0,7,0.2,16.9,0.5,29.8c1,4.9,3.4,9.4,7.2,13.6
		c3.7,4.2,9.9,6.3,18.4,6.3C543.6,216.6,553.3,210.4,558.4,198.1z"/>
	<path class="st1" d="M685.2,90.7c7.7,0,14.6,1.8,20.8,5.4c6.2,3.6,11.3,7.2,15.4,10.7c4.1,3.6,6.3,5.3,6.7,5.1
		c-0.5,0.5-2.5,3.1-5.9,7.8s-7.5,9.1-12.2,13.1c-4.7,4-9.2,5.8-13.3,5.2h-0.5c-1.2,0-2.3-0.4-3.3-1.3c-1-0.9-1.4-2.2-1.4-3.9
		c2.6-7.8,3.9-14.3,3.9-19.4c0-5.9-1.4-10.3-4.2-13.1c-2.8-2.8-6.2-4.2-10.2-4.2c-7,0-12.2,2.6-15.7,7.8c-5.2,5.4-8.8,12.7-10.7,22
		c0,7.3,0.1,13.1,0.3,17.3l-0.5-0.5c0.2,0.4,0.3,0.5,0.5,0.5v2.6v12c0,13.4,0.4,24.7,1.2,33.8c0.8,9.1,1.7,16.1,2.6,21.2
		c1,5.1,1.4,7.1,1.4,6.3h-41.9c0.2-1.4,0.6-4.8,1.3-10.3c0.7-5.5,1.4-13.5,2.2-23.9c0.8-10.5,1.3-22.6,1.7-36.4
		c-0.4-13.8-0.9-25.3-1.7-34.7c-0.8-9.3-1.5-16.1-2.2-20.4c-0.7-4.3-1.1-6.8-1.3-7.7h39.2c-0.2,0.9-0.5,3.1-0.9,6.8
		c-0.4,3.7-0.8,8.4-1.2,14.1c5.1-9.9,13.6-15.2,25.6-15.7C681.9,90.8,683.3,90.7,685.2,90.7z"/>
	<path class="st1" d="M788.3,85.8c-0.4,1-0.9,3.8-1.7,8.4c-0.8,4.5-1.6,11.7-2.4,21.5c-0.8,9.8-1.2,21.6-1.2,35.6
		c0,14,0.4,25.9,1.2,36c0.8,10,1.6,17.6,2.4,22.6c0.8,5.1,1.3,8.2,1.7,9.4h-41.9c0.3-1.4,0.9-4.8,1.7-10.3
		c0.8-5.5,1.6-13.5,2.4-23.9c0.8-10.5,1.2-22.6,1.2-36.4c0-13.8-0.4-25.3-1.2-34.7c-0.8-9.3-1.7-16.6-2.6-21.7
		c-1-5.1-1.4-7.3-1.4-6.4H788.3z M754.3,67.4c-3.5-3.5-5.2-7.8-5.2-13.1s1.7-9.6,5.2-13.1c3.5-3.5,7.8-5.2,13.1-5.2
		c5.2,0,9.6,1.7,13.1,5.2c3.5,3.5,5.2,7.8,5.2,13.1s-1.7,9.6-5.2,13.1c-3.5,3.5-7.8,5.2-13.1,5.2C762.2,72.7,757.8,70.9,754.3,67.4z
		"/>
	<path class="st1" d="M885.1,219.2c0,0.9,0.5-0.5,1.4-4.1c1-3.6,1.8-9.6,2.6-18.2c0.8-8.5,1.2-20.3,1.2-35.3
		c0-21.3-0.9-37.2-2.6-47.7c-1.7-10.6-4.1-17.4-6.9-20.7c-2.9-3.2-6.7-4.8-11.4-4.8c-10.3,0-19.6,6-28,18.1l-0.3,8.4
		c-0.4,11.9-0.5,22.2-0.5,31.1c0,16.2,0.4,29.8,1.2,40.7c0.8,10.9,1.7,19.3,2.6,25.2c1,5.9,1.4,8.4,1.4,7.3H804
		c0.3-1.4,0.9-4.8,1.7-10.3c0.8-5.5,1.6-13.5,2.4-23.9c0.8-10.5,1.2-22.6,1.2-36.4c0-13.8-0.4-25.7-1.2-35.8
		c-0.8-10.1-1.6-17.7-2.4-22.8c-0.8-5.1-1.4-8.2-1.7-9.4h39.2l-1.3,16c10.3-10.6,23.8-16,40.6-16c11.3,0,19.8,2.8,25.5,8.4
		c5.7,5.6,9.4,13.6,11.1,24.1c1.7,10.5,2.6,24.9,2.6,43.4c0,16.7,0.4,29.8,1.2,39.1c0.8,9.3,1.7,15.9,2.6,19.6
		c1,3.8,1.4,5.1,1.4,4.1H885.1z"/>
	<path class="st1" d="M1071.4,79.1c0.2,2,0.3,4.4,0.3,7.2c0,7.8-1.1,12.9-3.4,15.2c-0.5,0.5-1,0.8-1.6,0.8c-0.9,0-2.1-1.1-3.7-3.4
		c-3.5-4.9-7.2-8.5-11.1-10.9c-3.9-2.4-7.6-3.5-11.1-3.5c-3,0-5.5,0.8-7.6,2.4c6.5,3.1,11.7,7.3,15.8,12.4
		c4.1,5.1,6.1,11.1,6.1,17.9c0,7.7-2.5,14-7.6,19.1c-5.1,5.1-11.4,8.8-19,11.3c-7.6,2.4-15.3,3.7-23.2,3.7c-10.1,0-19.5-1.7-28.3-5
		c-4.5,0.5-8.4,2.1-11.5,4.8c-3.1,2.7-4.7,7.1-4.7,13.2c0,5.4,1.6,9,4.7,10.9c3.1,1.8,8.4,2.7,15.7,2.7c4.5,0,8.1-0.1,10.7-0.3
		l16-0.3c16.2,0,29.9,2.4,40.9,7.2c11.1,4.8,16.6,14.6,16.6,29.4c0,10.6-3.2,20.4-9.5,29.2c-6.4,8.8-14.4,15.7-24.2,20.8
		c-9.8,5.1-19.5,7.6-29,7.6c-7.2,0-15.2-1.3-24.2-3.8c-9-2.5-16.8-6.5-23.4-12c-6.6-5.5-9.9-12.4-9.9-20.8c0-7.2,2.3-12.9,6.8-17.1
		c4.5-4.3,9.9-7.4,16.2-9.3c-8.4-2.6-14.7-6.7-19.1-12.3c-4.4-5.6-6.5-11.9-6.5-18.8c0-9.1,3.3-16.4,9.8-21.8
		c6.5-5.5,13.3-9.2,20.3-11.1c-6.1-3-10.9-6.7-14.4-11.3c-3.5-4.5-5.2-9.9-5.2-16c0-7.8,2.8-14.6,8.4-20.3
		c5.6-5.7,12.4-9.9,20.5-12.6c8.1-2.7,15.9-4,23.4-3.8c7.8-0.3,15.9,1.2,24.1,4.7l4.7-4.7c6.5-6.5,13.6-9.7,21.5-9.7
		c2.6,0,5.1,0.4,7.3,1c2.3,0.7,4.1,1.4,5.4,2.1c1.3,0.7,2.1,1.1,2.5,1.3C1071.1,75.8,1071.2,77.1,1071.4,79.1z M1041.5,213.1
		c-3.9-2.5-9.5-3.8-16.9-3.8c-3.3,0-9,0.4-17,1c-8,0.7-14,1-17.8,1c-2.1,0-4.9-0.2-8.4-0.5c-6.6,7-9.9,15-9.9,24.1
		c0,8.9,2.9,16.4,8.6,22.4c5.8,6,13.3,9,22.8,9c6.6,0,13.4-1.7,20.4-5.1c7-3.4,12.7-8.1,17.3-14c4.5-5.9,6.8-12.6,6.8-20.1
		C1047.3,220.2,1045.4,215.6,1041.5,213.1z M1024.2,139.1c3.2-4.4,4.8-11.7,4.8-22c0-10.6-1.6-18.5-4.8-23.7
		c-3.2-5.1-9.5-7.7-18.7-7.7c-9.4,0-16.1,2.7-20.1,8.2c-4,5.5-6,13.2-6,23.2c0,9.8,2,17,5.9,21.6c3.9,4.6,10.7,7,20.3,7.2
		C1014.7,145.8,1021,143.5,1024.2,139.1z"/>
</g>
</svg>
